<?xml version="1.0" encoding="utf-8"?>
<!-- Generator: Adobe Illustrator 26.0.1, SVG Export Plug-In . SVG Version: 6.00 Build 0)  -->
<svg version="1.1" xmlns="http://www.w3.org/2000/svg" xmlns:xlink="http://www.w3.org/1999/xlink" x="0px" y="0px"
	 viewBox="0 0 198 76" style="enable-background:new 0 0 198 76;" xml:space="preserve">
<g id="Lager_1">
</g>
<g id="Lager_2">
	<g>
		<g>
			<path d="M37,36.8c5.7,0,10.2,4.6,10.2,10.2S42.7,57.2,37,57.2S26.8,52.7,26.8,47S31.3,36.8,37,36.8 M37,25.8
				c-11.7,0-21.2,9.5-21.2,21.2S25.3,68.2,37,68.2S58.2,58.7,58.2,47S48.7,25.8,37,25.8L37,25.8z"/>
		</g>
		<g>
			<path d="M174.8,7.8c-4.1,0-7.5,3.4-7.5,7.5s3.4,7.5,7.5,7.5s7.5-3.4,7.5-7.5S178.9,7.8,174.8,7.8L174.8,7.8z"/>
		</g>
		<g>
			<rect x="48.2" y="25.8" width="11" height="42"/>
		</g>
		<g>
			<rect x="67.2" y="9.2" width="11" height="58"/>
		</g>
		<g>
			<rect x="87.2" y="25.8" width="11" height="42"/>
		</g>
		<g>
			<rect x="169.2" y="25.8" width="11" height="42"/>
		</g>
		<g>
			<path d="M98.3,46.8c0-0.1,0-0.2,0-0.2c0-5.7,4.6-10.2,10.2-10.2s10.2,4.6,10.2,10.2c0,0.1,0,0.2,0,0.2h11c0-0.1,0-0.2,0-0.2
				c0-11.7-9.5-21.2-21.3-21.2c-11.7,0-21.2,9.5-21.2,21.2c0,0.1,0,0.2,0,0.2H98.3z"/>
		</g>
		<g>
			<path d="M130,46.8c0-0.1,0-0.2,0-0.2c0-5.7,4.6-10.2,10.2-10.2s10.2,4.6,10.2,10.2c0,0.1,0,0.2,0,0.2l11,0
				c0.1-11.8-9.4-21.5-21.2-21.5c-11.8,0-21.4,9.6-21.2,21.5L130,46.8z"/>
		</g>
		<g>
			<polygon points="119,67.8 118.9,58.4 119,46.7 130,46.8 129.9,58.4 130,67.7 			"/>
		</g>
		<g>
			<rect x="150.5" y="45.2" width="11" height="22.5"/>
		</g>
	</g>
</g>
</svg>
