<?xml version="1.0" encoding="utf-8"?>
<!-- Generator: Adobe Illustrator 26.0.1, SVG Export Plug-In . SVG Version: 6.00 Build 0)  -->
<svg version="1.1" xmlns="http://www.w3.org/2000/svg" xmlns:xlink="http://www.w3.org/1999/xlink" x="0px" y="0px"
	 viewBox="0 0 1920 1080" style="enable-background:new 0 0 1920 1080;" xml:space="preserve">
<style type="text/css">
	.st0{display:none;}
	.st1{fill:none;}
	.st2{fill:#23C3FF;}
	.st3{fill:#00BE5C;}
</style>
<g id="Lager_1" class="st0">
	
		<image style="display:inline;overflow:visible;" width="869" height="732" xlink:href="8DA9F353.jpg"  transform="matrix(1 0 0 1 -249 91)">
	</image>
</g>
<g id="Lager_2">
	<g>
		<path class="st1" d="M864.3,533.6c33.3,0,60.5-26.7,60.5-59.6c0-0.7,0-1.4-0.1-2.1h-60.4V533.6z"/>
		<path class="st1" d="M906,430.9l-41.7,41.1v0h60.4C924.2,455.8,917.1,441.3,906,430.9z"/>
		<path class="st1" d="M864.3,471.9L820.6,515c11,11.4,26.6,18.5,43.8,18.5V471.9L864.3,471.9z"/>
		<path class="st1" d="M803.9,471.9c0,0.7-0.1,1.4-0.1,2.1c0,15.9,6.4,30.4,16.7,41.1l43.8-43.1H803.9z"/>
		<path class="st1" d="M906,430.9c-10.9-10.2-25.5-16.5-41.7-16.5v57.5L906,430.9z"/>
		<polygon class="st1" points="864.3,471.9 864.3,471.9 864.3,471.9 		"/>
		<path class="st1" d="M864.3,471.9v-57.5c-32.6,0-59.3,25.6-60.4,57.5L864.3,471.9L864.3,471.9z"/>
		<path class="st2" d="M864.3,414.4V361c-62.6,0-113.5,49.5-114.6,110.9h54.2C805,440,831.7,414.4,864.3,414.4z"/>
		<path class="st2" d="M820.6,515l-38.4,37.8c20.8,21.1,49.9,34.1,82.1,34.1v-53.4C847.1,533.6,831.6,526.4,820.6,515z"/>
		<path class="st2" d="M924.7,471.9c0,0.7,0.1,1.4,0.1,2.1c0,32.9-27.1,59.6-60.5,59.6V587c63.3,0,114.7-50.6,114.7-113
			c0-0.7,0-1.4-0.1-2.1H924.7z"/>
		<path class="st2" d="M924.7,471.9h54.2c-0.6-30.9-13.7-58.8-34.6-78.8L906,430.9C917.1,441.3,924.2,455.8,924.7,471.9z"/>
		<path class="st3" d="M906,430.9l38.4-37.8c-20.7-19.8-48.9-32.1-80-32.1v53.4C880.5,414.4,895.1,420.7,906,430.9z"/>
		<path class="st2" d="M803.9,474c0-0.7,0-1.4,0.1-2.1h-54.2c0,0.7-0.1,1.4-0.1,2.1c0,30.7,12.4,58.5,32.6,78.8l38.4-37.8
			C810.2,504.3,803.9,489.9,803.9,474z"/>
	</g>
</g>
</svg>
