<?xml version="1.0" encoding="utf-8"?>
<!-- Generator: Adobe Illustrator 26.0.1, SVG Export Plug-In . SVG Version: 6.00 Build 0)  -->
<svg version="1.1" id="Lager_1" xmlns="http://www.w3.org/2000/svg" xmlns:xlink="http://www.w3.org/1999/xlink" x="0px" y="0px"
	 viewBox="0 0 55 55" style="enable-background:new 0 0 55 55;" xml:space="preserve">
<style type="text/css">
	.st0{display:none;}
	.st1{display:inline;}
	.st2{fill:#00BE5F;}
	.st3{display:inline;fill:none;stroke:#00BE5F;stroke-width:40;stroke-miterlimit:10;}
	.st4{display:inline;fill:none;stroke:#00BE5F;stroke-width:5;stroke-miterlimit:10;}
	.st5{fill:none;stroke:#00BE5F;stroke-width:4;stroke-miterlimit:10;}
</style>
<g id="Lager_1_00000090293217163369236260000002274017367455882157_" class="st0">
	<g class="st1">
		<path class="st2" d="M459.5,363c40,0,72.5,32.5,72.5,72.5S499.5,508,459.5,508S387,475.5,387,435.5S419.5,363,459.5,363
			 M459.5,323C397.4,323,347,373.4,347,435.5S397.4,548,459.5,548S572,497.6,572,435.5S521.6,323,459.5,323L459.5,323z"/>
	</g>
	<g class="st1">
		<path class="st2" d="M463,364h-7.1v144h7.1c0-35.9,0-71.9,0-107.8C463,388.1,463,376.1,463,364L463,364z"/>
	</g>
	<path class="st3" d="M523.6,442.4"/>
	<path class="st3" d="M479.2,423.2"/>
	<path class="st3" d="M470.3,523.3"/>
	<path class="st3" d="M487.1,417.4c0-2.8-0.4-8.2-3.3-13.7c-4.1-7.6-10.5-10.3-13.9-11.8c-2.6-1.1-14.6-6.3-26.7,0.6
		c-6.7,3.8-16.4,13.2-15,23.6c1,7.4,7.1,12,9.5,13.7c8.9,6.6,21.4,6.7,29.5,6.8c1.6,0,4.8,0,8.9,1.2c3.4,1,7.6,2.3,10.6,6.2
		c4.2,5.5,3.5,12.7,3.3,14.3c-1.4,12.2-12.9,18.4-15.6,19.9c-9.9,5.4-19.4,3.4-22.8,2.5c-4.1-1.1-13.4-3.5-18.9-13.1
		c-3.3-5.8-3.8-11.8-3.9-14.9"/>
	<path class="st4" d="M40.5,10.5"/>
</g>
<g id="Lager_2_00000157297173965131005410000010541146656064194971_">
	<g>
		<path class="st2" d="M27.4,10.4c9.6,0,17.5,7.9,17.5,17.5S37,45.4,27.4,45.4S9.9,37.5,9.9,27.9S17.8,10.4,27.4,10.4 M27.4,5.4
			C15,5.4,4.9,15.4,4.9,27.9S15,50.4,27.4,50.4s22.5-10.1,22.5-22.5S39.9,5.4,27.4,5.4L27.4,5.4z"/>
	</g>
	<g>
		<polygon class="st2" points="29.9,13.9 24.9,13.9 24.9,41.9 29.9,41.9 		"/>
	</g>
	<path class="st5" d="M35.4,18.7c-1,0-2.5,0.1-4.4,0c-3.5-0.2-4.4-0.6-5.8,0c-1.6,0.7-2.9,2.3-2.9,4c0,1.9,1.9,3.3,2.9,4
		c2,1.4,3,1,5.8,2.7c1.6,1,2.6,1.5,2.9,2.7c0.5,1.5-0.4,3.1-1.5,4c-1,0.9-2.2,1-4.4,1.3s-3.9,0.1-4.4,0c-1.9-0.3-3.4-0.9-4.4-1.3"/>
</g>
</svg>
