<?xml version="1.0" encoding="utf-8"?>
<!-- Generator: Adobe Illustrator 26.0.1, SVG Export Plug-In . SVG Version: 6.00 Build 0)  -->
<svg version="1.1" xmlns="http://www.w3.org/2000/svg" xmlns:xlink="http://www.w3.org/1999/xlink" x="0px" y="0px"
	 viewBox="0 0 1920 1080" style="enable-background:new 0 0 1920 1080;" xml:space="preserve">
<style type="text/css">
	.st0{display:none;}
</style>
<g id="Lager_1" class="st0">
	
		<image style="display:inline;overflow:visible;" width="225" height="225" xlink:href="53B0D8F9.jpg"  transform="matrix(1 0 0 1 848 356)">
	</image>
</g>
<g id="Lager_2">
	<g>
		<line x1="-236.3" y1="563" x2="-236.3" y2="441"/>
		<rect x="-238.8" y="441" width="5" height="122"/>
	</g>
	<g>
		<line x1="-163.6" y1="441.7" x2="-132.4" y2="471.6"/>
		<rect x="-150.5" y="435.1" transform="matrix(0.6918 -0.7221 0.7221 0.6918 -375.361 33.8628)" width="5" height="43.2"/>
	</g>
	<g>
		<line x1="-164.1" y1="470.5" x2="-133.4" y2="470.5"/>
		<rect x="-164.1" y="468" width="30.7" height="5"/>
	</g>
	<g>
		<rect x="-238" y="442.5" width="76" height="0"/>
		<rect x="-238" y="440" width="76" height="5"/>
	</g>
	<g>
		<rect x="-238" y="561.2" width="106" height="0"/>
		<rect x="-238" y="558.8" width="106" height="5"/>
	</g>
	<g>
		<rect x="-133.7" y="472.7" width="0.8" height="88.5"/>
		<rect x="-136.2" y="470.2" width="5.8" height="93.5"/>
	</g>
	<g>
		<line x1="-162.1" y1="442.3" x2="-162.1" y2="471.6"/>
		<rect x="-164.6" y="442.3" width="5" height="29.3"/>
	</g>
</g>
</svg>
